<svg data-v-423bf9ae="" xmlns="http://www.w3.org/2000/svg" viewBox="0 0 299.7975708502024 60" class="font"><!----><!----><!----><g data-v-423bf9ae="" id="f3e4e174-be12-4e35-a4ef-604b485186d8" fill="white" transform="matrix(5.182186126708984,0,0,5.182186126708984,-3.056674003601074,-26.90283203125)"><path d="M4.06 7.31L4.06 7.31Q4.06 7.45 3.92 7.45L3.92 7.45L2.23 7.45L2.23 7.45Q2.17 7.45 2.17 7.50L2.17 7.50L2.17 12.15L2.17 12.15Q2.17 12.91 2.52 13.20L2.52 13.20L2.52 13.20Q2.87 13.50 3.61 13.50L3.61 13.50L3.92 13.50L3.92 13.50Q4.06 13.50 4.06 13.64L4.06 13.64L4.06 13.85L4.06 13.85Q4.06 13.99 3.92 14L3.92 14L3.57 14L3.57 14Q2.63 14 2.14 13.62L2.14 13.62L2.14 13.62Q1.64 13.24 1.64 12.25L1.64 12.25L1.64 7.50L1.64 7.50Q1.64 7.45 1.58 7.45L1.58 7.45L0.73 7.45L0.73 7.45Q0.59 7.45 0.59 7.31L0.59 7.31L0.59 7.11L0.59 7.11Q0.59 6.97 0.73 6.97L0.73 6.97L1.58 6.97L1.58 6.97Q1.64 6.97 1.64 6.92L1.64 6.92L1.64 5.33L1.64 5.33Q1.64 5.19 1.78 5.19L1.78 5.19L2.03 5.19L2.03 5.19Q2.17 5.19 2.17 5.33L2.17 5.33L2.17 6.92L2.17 6.92Q2.17 6.97 2.23 6.97L2.23 6.97L3.92 6.97L3.92 6.97Q4.06 6.97 4.06 7.11L4.06 7.11L4.06 7.31ZM7.62 14L7.62 14Q7.50 14 7.46 13.89L7.46 13.89L5.50 7.13L5.49 7.08L5.49 7.08Q5.49 6.97 5.63 6.97L5.63 6.97L5.88 6.97L5.88 6.97Q6.01 6.97 6.03 7.08L6.03 7.08L7.73 13.17L7.73 13.17Q7.74 13.20 7.77 13.20L7.77 13.20L7.77 13.20Q7.80 13.20 7.81 13.17L7.81 13.17L9.52 7.08L9.52 7.08Q9.55 6.97 9.67 6.97L9.67 6.97L9.95 6.97L9.95 6.97Q10.07 6.97 10.11 7.08L10.11 7.08L11.83 13.16L11.83 13.16Q11.84 13.19 11.87 13.19L11.87 13.19L11.87 13.19Q11.90 13.19 11.91 13.16L11.91 13.16L13.62 7.08L13.62 7.08Q13.66 6.97 13.78 6.97L13.78 6.97L14.04 6.97L14.04 6.97Q14.11 6.97 14.15 7.01L14.15 7.01L14.15 7.01Q14.18 7.06 14.17 7.13L14.17 7.13L12.18 13.89L12.18 13.89Q12.14 14 12.03 14L12.03 14L11.73 14L11.73 14Q11.62 14 11.58 13.89L11.58 13.89L9.86 8.01L9.86 8.01Q9.84 7.98 9.81 7.98L9.81 7.98L9.81 7.98Q9.79 7.98 9.77 8.01L9.77 8.01L8.08 13.89L8.08 13.89Q8.04 14 7.92 14L7.92 14L7.62 14ZM18.42 13.62L18.42 13.62Q19.15 13.62 19.67 13.29L19.67 13.29L19.67 13.29Q20.19 12.95 20.44 12.38L20.44 12.38L20.44 12.38Q20.48 12.25 20.61 12.29L20.61 12.29L20.79 12.35L20.79 12.35Q20.93 12.39 20.89 12.53L20.89 12.53L20.89 12.53Q20.61 13.24 19.95 13.68L19.95 13.68L19.95 13.68Q19.29 14.11 18.40 14.11L18.40 14.11L18.40 14.11Q17.44 14.11 16.79 13.62L16.79 13.62L16.79 13.62Q16.13 13.13 15.88 12.31L15.88 12.31L15.88 12.31Q15.72 11.72 15.72 10.47L15.72 10.47L15.72 10.47Q15.72 9.83 15.74 9.44L15.74 9.44L15.74 9.44Q15.76 9.06 15.83 8.75L15.83 8.75L15.83 8.75Q16.04 7.90 16.72 7.38L16.72 7.38L16.72 7.38Q17.40 6.86 18.38 6.86L18.38 6.86L18.38 6.86Q19.42 6.86 20.10 7.41L20.10 7.41L20.10 7.41Q20.79 7.97 20.97 8.89L20.97 8.89L20.97 8.89Q21.03 9.16 21.04 9.52L21.04 9.52L21.04 9.52Q21.06 9.88 21.06 10.47L21.06 10.47L21.06 10.47Q21.06 10.63 20.92 10.63L20.92 10.63L16.32 10.63L16.32 10.63Q16.27 10.63 16.27 10.68L16.27 10.68L16.27 10.68Q16.27 11.13 16.28 11.49L16.28 11.49L16.28 11.49Q16.30 11.86 16.34 12.03L16.34 12.03L16.34 12.03Q16.48 12.75 17.03 13.19L17.03 13.19L17.03 13.19Q17.58 13.62 18.42 13.62L18.42 13.62ZM18.38 7.35L18.38 7.35Q17.56 7.35 17.02 7.78L17.02 7.78L17.02 7.78Q16.48 8.22 16.34 8.92L16.34 8.92L16.34 8.92Q16.27 9.37 16.27 10.12L16.27 10.12L16.27 10.12Q16.27 10.18 16.32 10.18L16.32 10.18L20.45 10.18L20.45 10.18Q20.51 10.18 20.51 10.12L20.51 10.12L20.51 10.12Q20.51 9.23 20.44 8.95L20.44 8.95L20.44 8.95Q20.29 8.23 19.74 7.79L19.74 7.79L19.74 7.79Q19.19 7.35 18.38 7.35L18.38 7.35ZM25.82 13.62L25.82 13.62Q26.54 13.62 27.06 13.29L27.06 13.29L27.06 13.29Q27.58 12.95 27.83 12.38L27.83 12.38L27.83 12.38Q27.87 12.25 28 12.29L28 12.29L28.18 12.35L28.18 12.35Q28.32 12.39 28.28 12.53L28.28 12.53L28.28 12.53Q28 13.24 27.34 13.68L27.34 13.68L27.34 13.68Q26.68 14.11 25.79 14.11L25.79 14.11L25.79 14.11Q24.84 14.11 24.18 13.62L24.18 13.62L24.18 13.62Q23.52 13.13 23.27 12.31L23.27 12.31L23.27 12.31Q23.11 11.72 23.11 10.47L23.11 10.47L23.11 10.47Q23.11 9.83 23.14 9.44L23.14 9.44L23.14 9.44Q23.16 9.06 23.23 8.75L23.23 8.75L23.23 8.75Q23.44 7.90 24.12 7.38L24.12 7.38L24.12 7.38Q24.79 6.86 25.77 6.86L25.77 6.86L25.77 6.86Q26.81 6.86 27.50 7.41L27.50 7.41L27.50 7.41Q28.18 7.97 28.36 8.89L28.36 8.89L28.36 8.89Q28.42 9.16 28.43 9.52L28.43 9.52L28.43 9.52Q28.45 9.88 28.45 10.47L28.45 10.47L28.45 10.47Q28.45 10.63 28.31 10.63L28.31 10.63L23.72 10.63L23.72 10.63Q23.66 10.63 23.66 10.68L23.66 10.68L23.66 10.68Q23.66 11.13 23.67 11.49L23.67 11.49L23.67 11.49Q23.69 11.86 23.73 12.03L23.73 12.03L23.73 12.03Q23.87 12.75 24.42 13.19L24.42 13.19L24.42 13.19Q24.98 13.62 25.82 13.62L25.82 13.62ZM25.77 7.35L25.77 7.35Q24.95 7.35 24.41 7.78L24.41 7.78L24.41 7.78Q23.87 8.22 23.73 8.92L23.73 8.92L23.73 8.92Q23.66 9.37 23.66 10.12L23.66 10.12L23.66 10.12Q23.66 10.18 23.72 10.18L23.72 10.18L27.85 10.18L27.85 10.18Q27.90 10.18 27.90 10.12L27.90 10.12L27.90 10.12Q27.90 9.23 27.83 8.95L27.83 8.95L27.83 8.95Q27.68 8.23 27.13 7.79L27.13 7.79L27.13 7.79Q26.59 7.35 25.77 7.35L25.77 7.35ZM33.52 7.31L33.52 7.31Q33.52 7.45 33.38 7.45L33.38 7.45L31.68 7.45L31.68 7.45Q31.63 7.45 31.63 7.50L31.63 7.50L31.63 12.15L31.63 12.15Q31.63 12.91 31.98 13.20L31.98 13.20L31.98 13.20Q32.33 13.50 33.07 13.50L33.07 13.50L33.38 13.50L33.38 13.50Q33.52 13.50 33.52 13.64L33.52 13.64L33.52 13.85L33.52 13.85Q33.52 13.99 33.38 14L33.38 14L33.03 14L33.03 14Q32.09 14 31.59 13.62L31.59 13.62L31.59 13.62Q31.09 13.24 31.09 12.25L31.09 12.25L31.09 7.50L31.09 7.50Q31.09 7.45 31.04 7.45L31.04 7.45L30.18 7.45L30.18 7.45Q30.04 7.45 30.04 7.31L30.04 7.31L30.04 7.11L30.04 7.11Q30.04 6.97 30.18 6.97L30.18 6.97L31.04 6.97L31.04 6.97Q31.09 6.97 31.09 6.92L31.09 6.92L31.09 5.33L31.09 5.33Q31.09 5.19 31.23 5.19L31.23 5.19L31.49 5.19L31.49 5.19Q31.63 5.19 31.63 5.33L31.63 5.33L31.63 6.92L31.63 6.92Q31.63 6.97 31.68 6.97L31.68 6.97L33.38 6.97L33.38 6.97Q33.52 6.97 33.52 7.11L33.52 7.11L33.52 7.31ZM40.78 6.86L40.78 6.86Q41.99 6.86 42.59 7.48L42.59 7.48L42.59 7.48Q43.20 8.11 43.20 9.20L43.20 9.20L43.20 13.86L43.20 13.86Q43.20 14 43.06 14L43.06 14L42.80 14L42.80 14Q42.66 14 42.66 13.86L42.66 13.86L42.66 13.19L42.66 13.19Q42.66 13.16 42.64 13.15L42.64 13.15L42.64 13.15Q42.62 13.13 42.59 13.16L42.59 13.16L42.59 13.16Q42.22 13.62 41.61 13.87L41.61 13.87L41.61 13.87Q41.01 14.11 40.29 14.11L40.29 14.11L40.29 14.11Q39.34 14.11 38.67 13.64L38.67 13.64L38.67 13.64Q38.01 13.16 38.01 12.17L38.01 12.17L38.01 12.17Q38.01 11.14 38.78 10.56L38.78 10.56L38.78 10.56Q39.55 9.97 40.89 9.97L40.89 9.97L42.60 9.97L42.60 9.97Q42.66 9.97 42.66 9.91L42.66 9.91L42.66 9.18L42.66 9.18Q42.66 8.34 42.20 7.85L42.20 7.85L42.20 7.85Q41.73 7.35 40.75 7.35L40.75 7.35L40.75 7.35Q40.00 7.35 39.51 7.67L39.51 7.67L39.51 7.67Q39.02 7.98 38.91 8.51L38.91 8.51L38.91 8.51Q38.86 8.65 38.74 8.64L38.74 8.64L38.44 8.60L38.44 8.60Q38.37 8.58 38.34 8.55L38.34 8.55L38.34 8.55Q38.30 8.51 38.32 8.46L38.32 8.46L38.32 8.46Q38.47 7.73 39.13 7.29L39.13 7.29L39.13 7.29Q39.79 6.86 40.78 6.86L40.78 6.86ZM40.36 13.62L40.36 13.62Q41.30 13.62 41.98 13.17L41.98 13.17L41.98 13.17Q42.66 12.73 42.66 11.91L42.66 11.91L42.66 10.49L42.66 10.49Q42.66 10.43 42.60 10.43L42.60 10.43L40.91 10.43L40.91 10.43Q39.86 10.43 39.21 10.88L39.21 10.88L39.21 10.88Q38.56 11.34 38.56 12.14L38.56 12.14L38.56 12.14Q38.56 12.87 39.06 13.24L39.06 13.24L39.06 13.24Q39.56 13.62 40.36 13.62L40.36 13.62ZM50.71 8.71L50.71 8.71Q50.79 9.02 50.81 9.39L50.81 9.39L50.81 9.39Q50.83 9.76 50.83 10.47L50.83 10.47L50.83 10.47Q50.83 11.17 50.81 11.56L50.81 11.56L50.81 11.56Q50.79 11.94 50.72 12.25L50.72 12.25L50.72 12.25Q50.51 13.09 49.86 13.60L49.86 13.60L49.86 13.60Q49.21 14.11 48.24 14.11L48.24 14.11L48.24 14.11Q47.60 14.11 47.10 13.84L47.10 13.84L47.10 13.84Q46.59 13.57 46.30 13.09L46.30 13.09L46.30 13.09Q46.27 13.06 46.25 13.06L46.25 13.06L46.25 13.06Q46.23 13.06 46.23 13.10L46.23 13.10L46.23 16.63L46.23 16.63Q46.23 16.77 46.09 16.77L46.09 16.77L45.82 16.77L45.82 16.77Q45.68 16.77 45.68 16.63L45.68 16.63L45.68 7.11L45.68 7.11Q45.68 6.97 45.82 6.97L45.82 6.97L46.09 6.97L46.09 6.97Q46.23 6.97 46.23 7.11L46.23 7.11L46.23 7.87L46.23 7.87Q46.23 7.91 46.25 7.91L46.25 7.91L46.25 7.91Q46.27 7.91 46.30 7.88L46.30 7.88L46.30 7.88Q46.61 7.39 47.10 7.13L47.10 7.13L47.10 7.13Q47.60 6.86 48.24 6.86L48.24 6.86L48.24 6.86Q49.20 6.86 49.85 7.36L49.85 7.36L49.85 7.36Q50.50 7.87 50.71 8.71L50.71 8.71ZM50.15 12.15L50.15 12.15Q50.23 11.90 50.26 11.59L50.26 11.59L50.26 11.59Q50.29 11.28 50.29 10.50L50.29 10.50L50.29 10.50Q50.29 9.73 50.26 9.43L50.26 9.43L50.26 9.43Q50.23 9.13 50.16 8.85L50.16 8.85L50.16 8.85Q50.04 8.19 49.50 7.77L49.50 7.77L49.50 7.77Q48.96 7.35 48.20 7.35L48.20 7.35L48.20 7.35Q47.45 7.35 46.96 7.78L46.96 7.78L46.96 7.78Q46.48 8.20 46.34 8.85L46.34 8.85L46.34 8.85Q46.27 9.09 46.25 9.38L46.25 9.38L46.25 9.38Q46.23 9.67 46.23 10.47L46.23 10.47L46.23 10.47Q46.23 11.28 46.25 11.59L46.25 11.59L46.25 11.59Q46.27 11.89 46.35 12.14L46.35 12.14L46.35 12.14Q46.48 12.78 46.97 13.20L46.97 13.20L46.97 13.20Q47.46 13.62 48.19 13.62L48.19 13.62L48.19 13.62Q48.93 13.62 49.46 13.21L49.46 13.21L49.46 13.21Q49.99 12.80 50.15 12.15L50.15 12.15ZM58.31 8.71L58.31 8.71Q58.39 9.02 58.41 9.39L58.41 9.39L58.41 9.39Q58.44 9.76 58.44 10.47L58.44 10.47L58.44 10.47Q58.44 11.17 58.41 11.56L58.41 11.56L58.41 11.56Q58.39 11.94 58.32 12.25L58.32 12.25L58.32 12.25Q58.11 13.09 57.46 13.60L57.46 13.60L57.46 13.60Q56.81 14.11 55.85 14.11L55.85 14.11L55.85 14.11Q55.20 14.11 54.70 13.84L54.70 13.84L54.70 13.84Q54.19 13.57 53.90 13.09L53.90 13.09L53.90 13.09Q53.87 13.06 53.85 13.06L53.85 13.06L53.85 13.06Q53.83 13.06 53.83 13.10L53.83 13.10L53.83 16.63L53.83 16.63Q53.83 16.77 53.69 16.77L53.69 16.77L53.42 16.77L53.42 16.77Q53.28 16.77 53.28 16.63L53.28 16.63L53.28 7.11L53.28 7.11Q53.28 6.97 53.42 6.97L53.42 6.97L53.69 6.97L53.69 6.97Q53.83 6.97 53.83 7.11L53.83 7.11L53.83 7.87L53.83 7.87Q53.83 7.91 53.85 7.91L53.85 7.91L53.85 7.91Q53.87 7.91 53.90 7.88L53.90 7.88L53.90 7.88Q54.21 7.39 54.70 7.13L54.70 7.13L54.70 7.13Q55.20 6.86 55.85 6.86L55.85 6.86L55.85 6.86Q56.80 6.86 57.45 7.36L57.45 7.36L57.45 7.36Q58.10 7.87 58.31 8.71L58.31 8.71ZM57.75 12.15L57.75 12.15Q57.83 11.90 57.86 11.59L57.86 11.59L57.86 11.59Q57.89 11.28 57.89 10.50L57.89 10.50L57.89 10.50Q57.89 9.73 57.86 9.43L57.86 9.43L57.86 9.43Q57.83 9.13 57.76 8.85L57.76 8.85L57.76 8.85Q57.64 8.19 57.10 7.77L57.10 7.77L57.10 7.77Q56.56 7.35 55.80 7.35L55.80 7.35L55.80 7.35Q55.05 7.35 54.56 7.78L54.56 7.78L54.56 7.78Q54.08 8.20 53.94 8.85L53.94 8.85L53.94 8.85Q53.87 9.09 53.85 9.38L53.85 9.38L53.85 9.38Q53.83 9.67 53.83 10.47L53.83 10.47L53.83 10.47Q53.83 11.28 53.85 11.59L53.85 11.59L53.85 11.59Q53.87 11.89 53.96 12.14L53.96 12.14L53.96 12.14Q54.08 12.78 54.57 13.20L54.57 13.20L54.57 13.20Q55.06 13.62 55.79 13.62L55.79 13.62L55.79 13.62Q56.53 13.62 57.06 13.21L57.06 13.21L57.06 13.21Q57.60 12.80 57.75 12.15L57.75 12.15Z"></path></g><!----><!----></svg>